<svg width="24" height="24" viewBox="0 0 24 24" fill="none" xmlns="http://www.w3.org/2000/svg">
<path fill-rule="evenodd" clip-rule="evenodd" d="M1 12C1 18.0751 5.92487 23 12 23C18.0751 23 23 18.0751 23 12C23 5.92487 18.0751 1 12 1C5.92487 1 1 5.92487 1 12ZM21 12C21 16.9706 16.9706 21 12 21C7.02944 21 3 16.9706 3 12C3 7.02944 7.02944 3 12 3C16.9706 3 21 7.02944 21 12Z" fill="white"/>
<path fill-rule="evenodd" clip-rule="evenodd" d="M12.723 15.2338C12.9052 15.2815 13.0852 15.3489 13.2602 15.437C14.6055 16.1137 15.1475 17.7529 14.4708 19.0982C14.3486 19.3411 14.195 19.5578 14.0175 19.7459C13.7924 20.0033 13.5147 20.2224 13.1904 20.3855C11.8451 21.0622 10.2059 20.5202 9.52922 19.1749C8.99882 18.1205 9.21709 16.8856 9.98401 16.075C10.3324 15.677 10.7842 15.3964 11.2769 15.2536L11.2677 11.4458C10.8952 11.3505 10.5437 11.177 10.2396 10.9341L7.25091 13.1643C7.53879 13.8687 7.53196 14.6891 7.16316 15.4223C6.48644 16.7676 4.84728 17.3095 3.50198 16.6328C2.15668 15.9561 1.61469 14.3169 2.29141 12.9716C2.96813 11.6264 4.60729 11.0844 5.95259 11.7611C6.12762 11.8491 6.28905 11.9535 6.43597 12.0713L9.42191 9.84313C8.9175 8.62295 9.3654 7.21509 10.4718 6.50804C11.2691 5.93958 12.3468 5.82081 13.2823 6.29141C14.6041 6.95632 15.1504 8.55039 14.5272 9.88192L17.564 12.1481C17.7109 12.0302 17.8724 11.9259 18.0474 11.8379C19.3927 11.1611 21.0319 11.7031 21.7086 13.0484C22.3853 14.3937 21.8433 16.0329 20.498 16.7096C19.1527 17.3863 17.5136 16.8443 16.8368 15.499C16.468 14.7659 16.4612 13.9454 16.7491 13.2411L13.6585 10.9348C13.6139 10.9671 13.5684 10.998 13.522 11.0275C13.4113 11.1059 13.2932 11.1771 13.1683 11.2399C13.0257 11.3116 12.8799 11.3697 12.7322 11.4145L12.723 15.2338ZM10.8391 8.11463C10.5007 8.78728 10.7717 9.60686 11.4444 9.94522C11.8783 10.1635 12.3735 10.1282 12.7611 9.89498C13.2801 9.50667 13.4624 8.79072 13.1609 8.19141C12.8226 7.51876 12.003 7.24776 11.3303 7.58612C11.2985 7.60215 11.2675 7.61926 11.2375 7.63739C11.0746 7.75964 10.9368 7.92039 10.8391 8.11463ZM11.4223 19.0908C10.7496 18.7524 10.4786 17.9329 10.817 17.2602C10.866 17.1628 10.9251 17.0738 10.9924 16.9938C11.0945 16.89 11.2151 16.8008 11.3524 16.7317C12.0251 16.3933 12.8447 16.6643 13.183 17.337C13.4357 17.8393 13.3485 18.4237 13.008 18.8283C12.604 19.24 11.9652 19.3639 11.4223 19.0908ZM3.50935 13.5843C3.17099 14.257 3.44198 15.0765 4.11463 15.4149C4.78728 15.7532 5.60686 15.4823 5.94522 14.8096C6.28358 14.137 6.01259 13.3174 5.33994 12.979C4.66729 12.6407 3.84771 12.9117 3.50935 13.5843ZM20.4907 13.6611C20.829 14.3337 20.558 15.1533 19.8854 15.4917C19.2127 15.83 18.3931 15.559 18.0548 14.8864C17.7164 14.2137 17.9874 13.3941 18.6601 13.0558C19.3327 12.7174 20.1523 12.9884 20.4907 13.6611Z" fill="white"/>
</svg>
