<svg width="24" height="24" viewBox="0 0 24 24" fill="none" xmlns="http://www.w3.org/2000/svg">
<path fill-rule="evenodd" clip-rule="evenodd" d="M21.2077 6.7531C22.2641 7.33997 22.2641 8.66003 21.2077 9.2469L19.8522 10L21.2078 10.7531C22.2641 11.34 22.2641 12.66 21.2078 13.2469L19.8522 14L21.2078 14.7531C22.2641 15.34 22.2641 16.66 21.2078 17.2469L13.1566 21.7198C12.484 22.0934 11.516 22.0934 10.8434 21.7198L2.79228 17.2469C1.73593 16.66 1.73593 15.34 2.79228 14.7531L4.14787 14L2.79228 13.2469C1.73593 12.66 1.73593 11.34 2.79228 10.7531L4.14787 10L2.79227 9.2469C1.73591 8.66003 1.73591 7.33997 2.79227 6.7531L10.8434 2.28024C11.516 1.90659 12.484 1.90659 13.1566 2.28024L21.2077 6.7531ZM13.1566 13.7198L17.793 11.144L19.3339 12L17.793 12.856L15.7339 14L12.1853 15.9715C12.1168 16.0095 11.8833 16.0095 11.8147 15.9715L8.26612 14L6.207 12.856L4.66612 12L6.20699 11.144L10.8434 13.7198C11.516 14.0934 12.484 14.0934 13.1566 13.7198ZM6.207 15.144L4.66612 16L11.8147 19.9715C11.8833 20.0095 12.1168 20.0095 12.1853 19.9715L19.3339 16L17.793 15.144L13.1566 17.7198C12.484 18.0934 11.516 18.0934 10.8434 17.7198L6.207 15.144ZM11.8147 4.02856C11.8833 3.99049 12.1168 3.99049 12.1853 4.02856L19.3339 8L12.1853 11.9715C12.1168 12.0095 11.8833 12.0095 11.8147 11.9715L4.66613 8L11.8147 4.02856Z" fill="white"/>
</svg>
