<svg width="24" height="24" viewBox="0 0 24 24" fill="none" xmlns="http://www.w3.org/2000/svg">
<path fill-rule="evenodd" clip-rule="evenodd" d="M1 12C1 18.0751 5.92487 23 12 23C18.0751 23 23 18.0751 23 12C23 5.92487 18.0751 1 12 1C5.92487 1 1 5.92487 1 12ZM21 12C21 16.9706 16.9706 21 12 21C7.02944 21 3 16.9706 3 12C3 7.02944 7.02944 3 12 3C16.9706 3 21 7.02944 21 12Z" fill="white"/>
<g clip-path="url(#clip0_8_165)">
<path d="M8.10196 13.2278C9.10258 13.2278 9.91375 12.4166 9.91375 11.4159C9.91375 10.4154 9.10258 9.60422 8.10188 9.60422C7.10133 9.60422 6.29017 10.4153 6.29017 11.416C6.29017 12.4166 7.10133 13.2278 8.10196 13.2278ZM3.8196 16.8513C4.82022 16.8513 5.63139 16.0402 5.63139 15.0395C5.63139 14.039 4.82022 13.2278 3.81952 13.2278C2.81905 13.2278 2.00781 14.0389 2.00781 15.0395C2.00781 16.0401 2.8189 16.8514 3.8196 16.8514V16.8513ZM20.1804 16.8513C21.181 16.8513 21.9922 16.0402 21.9922 15.0395C21.9922 14.039 21.1811 13.2278 20.1804 13.2278C19.1798 13.2278 18.3686 14.0389 18.3686 15.0395C18.3686 16.0401 19.1798 16.8514 20.1805 16.8514L20.1804 16.8513Z" fill="white"/>
<path d="M14.2299 11.4923C14.172 10.887 14.1425 10.3832 13.6788 10.0291C13.0916 9.58072 12.4263 9.87166 11.6069 9.57588C10.8017 9.38111 10.2045 8.66628 10.2045 7.81421C10.2045 6.81226 11.0303 6 12.0489 6C12.8034 6 13.452 6.44551 13.7377 7.08376C14.1749 7.91436 13.8907 8.75956 14.4401 9.18532C15.0906 9.68946 15.9677 9.3203 16.9463 9.79797C17.2586 9.94131 17.5247 10.1691 17.7144 10.4557C17.9082 10.7483 18.0113 11.0915 18.0109 11.4425C18.0109 12.2945 17.4137 13.0094 16.6086 13.2042C15.7892 13.5 15.1239 13.2091 14.5367 13.6575C13.8763 14.1617 14.2298 15.0054 13.6916 15.8965C13.3861 16.4834 12.7652 16.885 12.0489 16.885C11.0303 16.885 10.2045 16.0728 10.2045 15.0708C10.2045 14.343 10.6403 13.7153 11.2692 13.4263C12.2478 12.9486 13.1247 13.3178 13.7753 12.8137C14.1506 12.5228 14.2299 12.0742 14.2299 11.4923V11.4923Z" fill="white"/>
</g>
<defs>
<clipPath id="clip0_8_165">
<rect width="20" height="10.929" fill="white" transform="translate(2 6)"/>
</clipPath>
</defs>
</svg>
