<svg width="24" height="24" viewBox="0 0 24 24" fill="none" xmlns="http://www.w3.org/2000/svg">
<mask id="path-1-outside-1_8_154" maskUnits="userSpaceOnUse" x="0" y="1" width="24" height="21" fill="black">
<rect fill="white" y="1" width="24" height="21"/>
<path d="M18.9695 8.23852C18.7375 8.16118 18.5055 8.08813 18.2734 8.01938C18.3121 7.8604 18.3465 7.70142 18.3809 7.54243C18.9094 4.98149 18.5613 2.92329 17.3883 2.24438C16.2582 1.59556 14.4148 2.27017 12.55 3.89438C12.3652 4.05337 12.1848 4.22095 12.0129 4.38853C11.8969 4.27681 11.7766 4.16509 11.6562 4.05767C9.70117 2.32173 7.7418 1.59126 6.56875 2.27446C5.44297 2.92759 5.10781 4.86548 5.58047 7.28892C5.62773 7.52954 5.6793 7.76587 5.73945 8.00649C5.46445 8.08384 5.19375 8.16977 4.94023 8.26001C2.6457 9.05493 1 10.3096 1 11.6073C1 12.9479 2.75313 14.2928 5.13789 15.1092C5.33125 15.1737 5.52461 15.2381 5.72227 15.294C5.65781 15.5518 5.60195 15.8053 5.55039 16.0674C5.09922 18.4522 5.45156 20.3428 6.57734 20.9916C7.7375 21.662 9.68828 20.9745 11.5875 19.3116C11.7379 19.1784 11.8883 19.0409 12.0387 18.8948C12.2277 19.0795 12.4254 19.2557 12.623 19.4276C14.4621 21.0088 16.2797 21.6491 17.4012 21.0002C18.5613 20.3299 18.9395 18.2975 18.4496 15.8225C18.4109 15.6334 18.368 15.4401 18.3207 15.2424C18.4582 15.2038 18.5914 15.1608 18.7246 15.1178C21.2039 14.2971 23 12.9694 23 11.6073C23 10.3053 21.307 9.04204 18.9695 8.23852V8.23852ZM13.1559 4.59048C14.7543 3.19829 16.2453 2.65259 16.9242 3.0436C17.6504 3.4604 17.9297 5.14478 17.4742 7.35767C17.4441 7.50376 17.4141 7.64556 17.3754 7.78735C16.4215 7.57251 15.4547 7.41782 14.4836 7.33188C13.925 6.53267 13.3148 5.76782 12.6531 5.05024C12.8207 4.89126 12.984 4.74087 13.1559 4.59048V4.59048ZM8.18437 13.8374C8.40352 14.2112 8.62695 14.585 8.86328 14.9502C8.19297 14.8772 7.52695 14.7698 6.86953 14.628C7.05859 14.0092 7.29492 13.369 7.56992 12.7159C7.76758 13.094 7.96953 13.4678 8.18437 13.8374V13.8374ZM6.88242 8.66821C7.50117 8.53071 8.15859 8.41899 8.8418 8.33306C8.61406 8.6897 8.39063 9.05493 8.18008 9.42446C7.96953 9.7897 7.76328 10.1635 7.56992 10.5416C7.29922 9.90142 7.07148 9.27407 6.88242 8.66821ZM8.05977 11.6288C8.34336 11.0358 8.65273 10.4557 8.9793 9.88423C9.30586 9.31274 9.6582 8.75845 10.0277 8.21274C10.6723 8.16548 11.3297 8.1397 12 8.1397C12.6703 8.1397 13.332 8.16548 13.9723 8.21274C14.3375 8.75415 14.6855 9.30845 15.0164 9.87563C15.3473 10.4428 15.6566 11.0229 15.9488 11.6116C15.6609 12.2045 15.3516 12.7889 15.0207 13.3647C14.6941 13.9362 14.3461 14.4905 13.9809 15.0405C13.3406 15.0877 12.6746 15.1092 12 15.1092C11.3254 15.1092 10.6723 15.0877 10.0406 15.0491C9.6668 14.5034 9.31445 13.9448 8.98359 13.3733C8.65273 12.8018 8.34766 12.2217 8.05977 11.6288ZM15.8199 13.8288C16.0391 13.4506 16.2453 13.0682 16.4473 12.6815C16.7223 13.3045 16.9629 13.9362 17.1734 14.585C16.5074 14.7354 15.8328 14.8514 15.1539 14.9288C15.3859 14.5678 15.6051 14.1983 15.8199 13.8288ZM16.4387 10.5416C16.2367 10.1635 16.0305 9.7854 15.8156 9.41587C15.6051 9.05063 15.3859 8.6897 15.1582 8.33306C15.85 8.41899 16.5117 8.53501 17.1305 8.67681C16.9328 9.31274 16.7008 9.93149 16.4387 10.5416V10.5416ZM12.0086 5.70767C12.4598 6.19751 12.8852 6.71313 13.2805 7.24595C12.4297 7.20728 11.5746 7.20728 10.7238 7.24595C11.1449 6.69165 11.5789 6.17603 12.0086 5.70767ZM7.02422 3.07368C7.74609 2.65259 9.34883 3.25415 11.0375 4.74946C11.1449 4.84399 11.2523 4.94712 11.3641 5.05024C10.698 5.76782 10.0836 6.53267 9.5207 7.33188C8.54961 7.41782 7.58711 7.56821 6.6332 7.77876C6.57734 7.55962 6.53008 7.33618 6.48281 7.11274C6.07891 5.03306 6.34531 3.4647 7.02422 3.07368V3.07368ZM5.97148 14.4002C5.79102 14.3487 5.61484 14.2928 5.43867 14.2327C4.52344 13.9448 3.48359 13.4893 2.73164 12.892C2.29766 12.5913 2.00547 12.1272 1.92383 11.6073C1.92383 10.8209 3.28164 9.81548 5.24102 9.13227C5.48594 9.04634 5.73516 8.96899 5.98438 8.89595C6.27656 9.82837 6.62891 10.7436 7.03711 11.6288C6.62461 12.5268 6.26797 13.4549 5.97148 14.4002V14.4002ZM10.9816 18.6112C10.2727 19.26 9.45195 19.7756 8.5582 20.128C8.08125 20.3557 7.53125 20.3772 7.04141 20.1838C6.3582 19.7885 6.07461 18.2717 6.46133 16.2307C6.50859 15.9901 6.56016 15.7495 6.62031 15.5131C7.58281 15.7194 8.55391 15.8612 9.53789 15.9342C10.1051 16.7377 10.7281 17.5069 11.3941 18.2288C11.2566 18.362 11.1191 18.4909 10.9816 18.6112ZM12.0344 17.567C11.5961 17.0944 11.1578 16.5702 10.7324 16.0073C11.1449 16.0245 11.5703 16.0331 12 16.0331C12.4426 16.0331 12.8766 16.0245 13.3062 16.003C12.9109 16.5487 12.4855 17.0686 12.0344 17.567V17.567ZM17.6504 18.8561C17.6117 19.3803 17.3539 19.8702 16.9414 20.201C16.2582 20.5963 14.8016 20.0807 13.2289 18.7315C13.0484 18.5768 12.868 18.4092 12.6832 18.2374C13.3406 17.5112 13.9465 16.742 14.4965 15.9342C15.4805 15.8526 16.4602 15.7022 17.427 15.4831C17.4699 15.6592 17.5086 15.8354 17.543 16.0073C17.7535 16.9354 17.7879 17.9022 17.6504 18.8561V18.8561ZM18.4324 14.237C18.3121 14.2756 18.1918 14.3143 18.0672 14.3487C17.7664 13.412 17.3969 12.4967 16.9715 11.6073C17.384 10.7307 17.732 9.82837 18.0242 8.90454C18.2477 8.96899 18.4625 9.03774 18.6688 9.10649C20.6711 9.79399 22.0762 10.8166 22.0762 11.5987C22.0762 12.4409 20.5766 13.528 18.4324 14.237ZM12 13.5924C13.0871 13.5924 13.968 12.7116 13.968 11.6245C13.968 10.5374 13.0871 9.65649 12 9.65649C10.9129 9.65649 10.032 10.5374 10.032 11.6245C10.032 12.7116 10.9129 13.5924 12 13.5924Z"/>
</mask>
<path d="M18.9695 8.23852C18.7375 8.16118 18.5055 8.08813 18.2734 8.01938C18.3121 7.8604 18.3465 7.70142 18.3809 7.54243C18.9094 4.98149 18.5613 2.92329 17.3883 2.24438C16.2582 1.59556 14.4148 2.27017 12.55 3.89438C12.3652 4.05337 12.1848 4.22095 12.0129 4.38853C11.8969 4.27681 11.7766 4.16509 11.6562 4.05767C9.70117 2.32173 7.7418 1.59126 6.56875 2.27446C5.44297 2.92759 5.10781 4.86548 5.58047 7.28892C5.62773 7.52954 5.6793 7.76587 5.73945 8.00649C5.46445 8.08384 5.19375 8.16977 4.94023 8.26001C2.6457 9.05493 1 10.3096 1 11.6073C1 12.9479 2.75313 14.2928 5.13789 15.1092C5.33125 15.1737 5.52461 15.2381 5.72227 15.294C5.65781 15.5518 5.60195 15.8053 5.55039 16.0674C5.09922 18.4522 5.45156 20.3428 6.57734 20.9916C7.7375 21.662 9.68828 20.9745 11.5875 19.3116C11.7379 19.1784 11.8883 19.0409 12.0387 18.8948C12.2277 19.0795 12.4254 19.2557 12.623 19.4276C14.4621 21.0088 16.2797 21.6491 17.4012 21.0002C18.5613 20.3299 18.9395 18.2975 18.4496 15.8225C18.4109 15.6334 18.368 15.4401 18.3207 15.2424C18.4582 15.2038 18.5914 15.1608 18.7246 15.1178C21.2039 14.2971 23 12.9694 23 11.6073C23 10.3053 21.307 9.04204 18.9695 8.23852V8.23852ZM13.1559 4.59048C14.7543 3.19829 16.2453 2.65259 16.9242 3.0436C17.6504 3.4604 17.9297 5.14478 17.4742 7.35767C17.4441 7.50376 17.4141 7.64556 17.3754 7.78735C16.4215 7.57251 15.4547 7.41782 14.4836 7.33188C13.925 6.53267 13.3148 5.76782 12.6531 5.05024C12.8207 4.89126 12.984 4.74087 13.1559 4.59048V4.59048ZM8.18437 13.8374C8.40352 14.2112 8.62695 14.585 8.86328 14.9502C8.19297 14.8772 7.52695 14.7698 6.86953 14.628C7.05859 14.0092 7.29492 13.369 7.56992 12.7159C7.76758 13.094 7.96953 13.4678 8.18437 13.8374V13.8374ZM6.88242 8.66821C7.50117 8.53071 8.15859 8.41899 8.8418 8.33306C8.61406 8.6897 8.39063 9.05493 8.18008 9.42446C7.96953 9.7897 7.76328 10.1635 7.56992 10.5416C7.29922 9.90142 7.07148 9.27407 6.88242 8.66821ZM8.05977 11.6288C8.34336 11.0358 8.65273 10.4557 8.9793 9.88423C9.30586 9.31274 9.6582 8.75845 10.0277 8.21274C10.6723 8.16548 11.3297 8.1397 12 8.1397C12.6703 8.1397 13.332 8.16548 13.9723 8.21274C14.3375 8.75415 14.6855 9.30845 15.0164 9.87563C15.3473 10.4428 15.6566 11.0229 15.9488 11.6116C15.6609 12.2045 15.3516 12.7889 15.0207 13.3647C14.6941 13.9362 14.3461 14.4905 13.9809 15.0405C13.3406 15.0877 12.6746 15.1092 12 15.1092C11.3254 15.1092 10.6723 15.0877 10.0406 15.0491C9.6668 14.5034 9.31445 13.9448 8.98359 13.3733C8.65273 12.8018 8.34766 12.2217 8.05977 11.6288ZM15.8199 13.8288C16.0391 13.4506 16.2453 13.0682 16.4473 12.6815C16.7223 13.3045 16.9629 13.9362 17.1734 14.585C16.5074 14.7354 15.8328 14.8514 15.1539 14.9288C15.3859 14.5678 15.6051 14.1983 15.8199 13.8288ZM16.4387 10.5416C16.2367 10.1635 16.0305 9.7854 15.8156 9.41587C15.6051 9.05063 15.3859 8.6897 15.1582 8.33306C15.85 8.41899 16.5117 8.53501 17.1305 8.67681C16.9328 9.31274 16.7008 9.93149 16.4387 10.5416V10.5416ZM12.0086 5.70767C12.4598 6.19751 12.8852 6.71313 13.2805 7.24595C12.4297 7.20728 11.5746 7.20728 10.7238 7.24595C11.1449 6.69165 11.5789 6.17603 12.0086 5.70767ZM7.02422 3.07368C7.74609 2.65259 9.34883 3.25415 11.0375 4.74946C11.1449 4.84399 11.2523 4.94712 11.3641 5.05024C10.698 5.76782 10.0836 6.53267 9.5207 7.33188C8.54961 7.41782 7.58711 7.56821 6.6332 7.77876C6.57734 7.55962 6.53008 7.33618 6.48281 7.11274C6.07891 5.03306 6.34531 3.4647 7.02422 3.07368V3.07368ZM5.97148 14.4002C5.79102 14.3487 5.61484 14.2928 5.43867 14.2327C4.52344 13.9448 3.48359 13.4893 2.73164 12.892C2.29766 12.5913 2.00547 12.1272 1.92383 11.6073C1.92383 10.8209 3.28164 9.81548 5.24102 9.13227C5.48594 9.04634 5.73516 8.96899 5.98438 8.89595C6.27656 9.82837 6.62891 10.7436 7.03711 11.6288C6.62461 12.5268 6.26797 13.4549 5.97148 14.4002V14.4002ZM10.9816 18.6112C10.2727 19.26 9.45195 19.7756 8.5582 20.128C8.08125 20.3557 7.53125 20.3772 7.04141 20.1838C6.3582 19.7885 6.07461 18.2717 6.46133 16.2307C6.50859 15.9901 6.56016 15.7495 6.62031 15.5131C7.58281 15.7194 8.55391 15.8612 9.53789 15.9342C10.1051 16.7377 10.7281 17.5069 11.3941 18.2288C11.2566 18.362 11.1191 18.4909 10.9816 18.6112ZM12.0344 17.567C11.5961 17.0944 11.1578 16.5702 10.7324 16.0073C11.1449 16.0245 11.5703 16.0331 12 16.0331C12.4426 16.0331 12.8766 16.0245 13.3062 16.003C12.9109 16.5487 12.4855 17.0686 12.0344 17.567V17.567ZM17.6504 18.8561C17.6117 19.3803 17.3539 19.8702 16.9414 20.201C16.2582 20.5963 14.8016 20.0807 13.2289 18.7315C13.0484 18.5768 12.868 18.4092 12.6832 18.2374C13.3406 17.5112 13.9465 16.742 14.4965 15.9342C15.4805 15.8526 16.4602 15.7022 17.427 15.4831C17.4699 15.6592 17.5086 15.8354 17.543 16.0073C17.7535 16.9354 17.7879 17.9022 17.6504 18.8561V18.8561ZM18.4324 14.237C18.3121 14.2756 18.1918 14.3143 18.0672 14.3487C17.7664 13.412 17.3969 12.4967 16.9715 11.6073C17.384 10.7307 17.732 9.82837 18.0242 8.90454C18.2477 8.96899 18.4625 9.03774 18.6688 9.10649C20.6711 9.79399 22.0762 10.8166 22.0762 11.5987C22.0762 12.4409 20.5766 13.528 18.4324 14.237ZM12 13.5924C13.0871 13.5924 13.968 12.7116 13.968 11.6245C13.968 10.5374 13.0871 9.65649 12 9.65649C10.9129 9.65649 10.032 10.5374 10.032 11.6245C10.032 12.7116 10.9129 13.5924 12 13.5924Z" fill="white"/>
<path d="M18.9695 8.23852C18.7375 8.16118 18.5055 8.08813 18.2734 8.01938C18.3121 7.8604 18.3465 7.70142 18.3809 7.54243C18.9094 4.98149 18.5613 2.92329 17.3883 2.24438C16.2582 1.59556 14.4148 2.27017 12.55 3.89438C12.3652 4.05337 12.1848 4.22095 12.0129 4.38853C11.8969 4.27681 11.7766 4.16509 11.6562 4.05767C9.70117 2.32173 7.7418 1.59126 6.56875 2.27446C5.44297 2.92759 5.10781 4.86548 5.58047 7.28892C5.62773 7.52954 5.6793 7.76587 5.73945 8.00649C5.46445 8.08384 5.19375 8.16977 4.94023 8.26001C2.6457 9.05493 1 10.3096 1 11.6073C1 12.9479 2.75313 14.2928 5.13789 15.1092C5.33125 15.1737 5.52461 15.2381 5.72227 15.294C5.65781 15.5518 5.60195 15.8053 5.55039 16.0674C5.09922 18.4522 5.45156 20.3428 6.57734 20.9916C7.7375 21.662 9.68828 20.9745 11.5875 19.3116C11.7379 19.1784 11.8883 19.0409 12.0387 18.8948C12.2277 19.0795 12.4254 19.2557 12.623 19.4276C14.4621 21.0088 16.2797 21.6491 17.4012 21.0002C18.5613 20.3299 18.9395 18.2975 18.4496 15.8225C18.4109 15.6334 18.368 15.4401 18.3207 15.2424C18.4582 15.2038 18.5914 15.1608 18.7246 15.1178C21.2039 14.2971 23 12.9694 23 11.6073C23 10.3053 21.307 9.04204 18.9695 8.23852V8.23852ZM13.1559 4.59048C14.7543 3.19829 16.2453 2.65259 16.9242 3.0436C17.6504 3.4604 17.9297 5.14478 17.4742 7.35767C17.4441 7.50376 17.4141 7.64556 17.3754 7.78735C16.4215 7.57251 15.4547 7.41782 14.4836 7.33188C13.925 6.53267 13.3148 5.76782 12.6531 5.05024C12.8207 4.89126 12.984 4.74087 13.1559 4.59048V4.59048ZM8.18437 13.8374C8.40352 14.2112 8.62695 14.585 8.86328 14.9502C8.19297 14.8772 7.52695 14.7698 6.86953 14.628C7.05859 14.0092 7.29492 13.369 7.56992 12.7159C7.76758 13.094 7.96953 13.4678 8.18437 13.8374V13.8374ZM6.88242 8.66821C7.50117 8.53071 8.15859 8.41899 8.8418 8.33306C8.61406 8.6897 8.39063 9.05493 8.18008 9.42446C7.96953 9.7897 7.76328 10.1635 7.56992 10.5416C7.29922 9.90142 7.07148 9.27407 6.88242 8.66821ZM8.05977 11.6288C8.34336 11.0358 8.65273 10.4557 8.9793 9.88423C9.30586 9.31274 9.6582 8.75845 10.0277 8.21274C10.6723 8.16548 11.3297 8.1397 12 8.1397C12.6703 8.1397 13.332 8.16548 13.9723 8.21274C14.3375 8.75415 14.6855 9.30845 15.0164 9.87563C15.3473 10.4428 15.6566 11.0229 15.9488 11.6116C15.6609 12.2045 15.3516 12.7889 15.0207 13.3647C14.6941 13.9362 14.3461 14.4905 13.9809 15.0405C13.3406 15.0877 12.6746 15.1092 12 15.1092C11.3254 15.1092 10.6723 15.0877 10.0406 15.0491C9.6668 14.5034 9.31445 13.9448 8.98359 13.3733C8.65273 12.8018 8.34766 12.2217 8.05977 11.6288ZM15.8199 13.8288C16.0391 13.4506 16.2453 13.0682 16.4473 12.6815C16.7223 13.3045 16.9629 13.9362 17.1734 14.585C16.5074 14.7354 15.8328 14.8514 15.1539 14.9288C15.3859 14.5678 15.6051 14.1983 15.8199 13.8288ZM16.4387 10.5416C16.2367 10.1635 16.0305 9.7854 15.8156 9.41587C15.6051 9.05063 15.3859 8.6897 15.1582 8.33306C15.85 8.41899 16.5117 8.53501 17.1305 8.67681C16.9328 9.31274 16.7008 9.93149 16.4387 10.5416V10.5416ZM12.0086 5.70767C12.4598 6.19751 12.8852 6.71313 13.2805 7.24595C12.4297 7.20728 11.5746 7.20728 10.7238 7.24595C11.1449 6.69165 11.5789 6.17603 12.0086 5.70767ZM7.02422 3.07368C7.74609 2.65259 9.34883 3.25415 11.0375 4.74946C11.1449 4.84399 11.2523 4.94712 11.3641 5.05024C10.698 5.76782 10.0836 6.53267 9.5207 7.33188C8.54961 7.41782 7.58711 7.56821 6.6332 7.77876C6.57734 7.55962 6.53008 7.33618 6.48281 7.11274C6.07891 5.03306 6.34531 3.4647 7.02422 3.07368V3.07368ZM5.97148 14.4002C5.79102 14.3487 5.61484 14.2928 5.43867 14.2327C4.52344 13.9448 3.48359 13.4893 2.73164 12.892C2.29766 12.5913 2.00547 12.1272 1.92383 11.6073C1.92383 10.8209 3.28164 9.81548 5.24102 9.13227C5.48594 9.04634 5.73516 8.96899 5.98438 8.89595C6.27656 9.82837 6.62891 10.7436 7.03711 11.6288C6.62461 12.5268 6.26797 13.4549 5.97148 14.4002V14.4002ZM10.9816 18.6112C10.2727 19.26 9.45195 19.7756 8.5582 20.128C8.08125 20.3557 7.53125 20.3772 7.04141 20.1838C6.3582 19.7885 6.07461 18.2717 6.46133 16.2307C6.50859 15.9901 6.56016 15.7495 6.62031 15.5131C7.58281 15.7194 8.55391 15.8612 9.53789 15.9342C10.1051 16.7377 10.7281 17.5069 11.3941 18.2288C11.2566 18.362 11.1191 18.4909 10.9816 18.6112ZM12.0344 17.567C11.5961 17.0944 11.1578 16.5702 10.7324 16.0073C11.1449 16.0245 11.5703 16.0331 12 16.0331C12.4426 16.0331 12.8766 16.0245 13.3062 16.003C12.9109 16.5487 12.4855 17.0686 12.0344 17.567V17.567ZM17.6504 18.8561C17.6117 19.3803 17.3539 19.8702 16.9414 20.201C16.2582 20.5963 14.8016 20.0807 13.2289 18.7315C13.0484 18.5768 12.868 18.4092 12.6832 18.2374C13.3406 17.5112 13.9465 16.742 14.4965 15.9342C15.4805 15.8526 16.4602 15.7022 17.427 15.4831C17.4699 15.6592 17.5086 15.8354 17.543 16.0073C17.7535 16.9354 17.7879 17.9022 17.6504 18.8561V18.8561ZM18.4324 14.237C18.3121 14.2756 18.1918 14.3143 18.0672 14.3487C17.7664 13.412 17.3969 12.4967 16.9715 11.6073C17.384 10.7307 17.732 9.82837 18.0242 8.90454C18.2477 8.96899 18.4625 9.03774 18.6688 9.10649C20.6711 9.79399 22.0762 10.8166 22.0762 11.5987C22.0762 12.4409 20.5766 13.528 18.4324 14.237ZM12 13.5924C13.0871 13.5924 13.968 12.7116 13.968 11.6245C13.968 10.5374 13.0871 9.65649 12 9.65649C10.9129 9.65649 10.032 10.5374 10.032 11.6245C10.032 12.7116 10.9129 13.5924 12 13.5924Z" stroke="white" stroke-width="0.384003" mask="url(#path-1-outside-1_8_154)"/>
</svg>
