<svg width="66" height="22" viewBox="0 0 66 22" fill="none" xmlns="http://www.w3.org/2000/svg">
<path d="M9.40268 4.00049H3.82739V18.0001H6.42652V6.59961H8.09085L10.8283 11.0014H13.7866L9.40268 4.00049Z" />
<path d="M12.2517 18.0001H17.827V4.00049H15.2278V15.4009H13.5657L10.8283 11.0014H7.86775L12.2517 18.0001Z" />
<path d="M23.0341 7.50317H24.3995V8.44242H24.4932C24.7743 7.86682 25.4972 7.32692 26.5413 7.32692C28.1342 7.32692 29.1114 8.49151 29.1114 10.0041V14.5018H27.7059V10.2629C27.7059 9.28575 27.0232 8.62983 26.1442 8.62983C25.167 8.62983 24.4441 9.39283 24.4441 10.4146V14.4974H23.0386L23.0341 7.50317Z" />
<path d="M30.6374 11.0237C30.6374 8.79269 32.1366 7.32915 34.1312 7.32915C36.3131 7.32915 37.558 8.93548 37.558 10.93V11.4521H32.0429C32.0965 12.6702 32.913 13.5001 34.1981 13.5001C35.0905 13.5001 35.8446 13.0718 36.1257 12.3846H37.4888C37.1363 13.7411 35.8847 14.6892 34.1579 14.6892C32.0563 14.6892 30.6374 13.1275 30.6374 11.0237ZM36.1658 10.3678C36.0721 9.18981 35.2154 8.50713 34.1312 8.50713C33.6158 8.49846 33.1163 8.68573 32.7337 9.0311C32.351 9.37647 32.1137 9.85421 32.0697 10.3678H36.1658Z" />
<path d="M38.6289 11.0103C38.6289 8.90871 40.1906 7.32915 42.3368 7.32915C44.483 7.32915 46.018 8.92209 46.018 11.0103C46.018 13.0985 44.4563 14.6781 42.3234 14.6781C40.1906 14.6781 38.6289 13.1119 38.6289 11.0103ZM44.5857 11.0103C44.5857 9.61817 43.6486 8.61421 42.3234 8.61421C40.9982 8.61421 40.0612 9.63155 40.0612 11.0103C40.0612 12.3891 41.0116 13.4064 42.3234 13.4064C43.6353 13.4064 44.5857 12.3891 44.5857 11.0103Z" />
<path d="M46.8881 11.0103C46.8881 8.93548 48.3873 7.32915 50.5157 7.32915C52.1733 7.32915 53.5811 8.34649 53.9001 9.95281H52.4544C52.3231 9.55045 52.0639 9.20198 51.7164 8.96036C51.3689 8.71874 50.952 8.5972 50.5291 8.61421C49.2039 8.61421 48.3338 9.65833 48.3338 11.0103C48.3338 12.3623 49.244 13.4064 50.5648 13.4064C50.9835 13.419 51.3953 13.2971 51.7398 13.0586C52.0843 12.8201 52.3433 12.4776 52.479 12.0812H53.909C53.5922 13.6875 52.1733 14.6892 50.5224 14.6892C48.3605 14.6892 46.8881 13.0718 46.8881 11.0103Z" />
<path d="M54.7858 11.0103C54.7858 8.90871 56.3475 7.32915 58.4915 7.32915C60.6355 7.32915 62.1727 8.92209 62.1727 11.0103C62.1727 13.0985 60.611 14.6781 58.4804 14.6781C56.3498 14.6781 54.7858 13.1119 54.7858 11.0103ZM60.7404 11.0103C60.7404 9.61817 59.8056 8.61421 58.4804 8.61421C57.1552 8.61421 56.2181 9.63155 56.2181 11.0103C56.2181 12.3891 57.1686 13.4064 58.4804 13.4064C59.7922 13.4064 60.7404 12.3891 60.7404 11.0103Z" />
</svg>
