<svg width="24" height="24" viewBox="0 0 24 24" fill="none" xmlns="http://www.w3.org/2000/svg">
<path fill-rule="evenodd" clip-rule="evenodd" d="M0 12C0 18.6078 5.39221 24 12 24C18.6078 24 24 18.6078 24 12C24 5.39221 18.6078 0 12 0C5.39221 0 0 5.39221 0 12ZM9.66838 16.841L9.67816 16.8307C10.2195 16.2606 10.2197 15.362 9.64371 14.7932L9.63744 14.7871L6.95367 12.2409L9.62801 9.70365C10.2377 9.13426 10.2068 8.20781 9.67816 7.65105C9.10189 7.04414 8.16012 7.07341 7.59475 7.59674L7.59064 7.60051L3.80062 11.1988L3.79447 11.2048C3.50859 11.4871 3.36 11.8548 3.36 12.2409C3.36 12.627 3.50859 12.9947 3.79447 13.277L3.80062 13.283L7.6016 16.8917L7.6173 16.9052C7.87934 17.1316 8.22809 17.28 8.60895 17.28C8.99994 17.28 9.37242 17.1332 9.65824 16.851L9.66838 16.841ZM14.3316 16.841L14.3218 16.8307C13.7805 16.2606 13.7803 15.362 14.3563 14.7932L14.3626 14.7871L17.0463 12.2409L14.372 9.70365C13.7623 9.13426 13.7932 8.20781 14.3218 7.65105C14.8981 7.04414 15.8399 7.07341 16.4053 7.59674L16.4094 7.60051L20.1994 11.1988L20.2055 11.2048C20.4914 11.4871 20.64 11.8548 20.64 12.2409C20.64 12.627 20.4914 12.9947 20.2055 13.277L20.1994 13.283L16.3984 16.8917L16.3827 16.9052C16.1207 17.1316 15.7719 17.28 15.3911 17.28C15.0001 17.28 14.6276 17.1332 14.3418 16.851L14.3316 16.841Z" fill="white"/>
</svg>
