<svg width="10" height="11" viewBox="0 0 10 11" fill="none" xmlns="http://www.w3.org/2000/svg">
<path fill-rule="evenodd" clip-rule="evenodd" d="M1.5 1C1.22386 1 1 1.22386 1 1.5V9.5C1 9.77614 1.22386 10 1.5 10H4C4.27614 10 4.5 10.2239 4.5 10.5C4.5 10.7761 4.27614 11 4 11H1.5C0.671573 11 0 10.3284 0 9.5V1.5C0 0.671573 0.671573 0 1.5 0H4C4.27614 0 4.5 0.223858 4.5 0.5C4.5 0.776142 4.27614 1 4 1H1.5Z" fill="white"/>
<path fill-rule="evenodd" clip-rule="evenodd" d="M7.14645 3.14645C7.34171 2.95118 7.65829 2.95118 7.85355 3.14645L9.85355 5.14645C10.0488 5.34171 10.0488 5.65829 9.85355 5.85355L7.85355 7.85355C7.65829 8.04882 7.34171 8.04882 7.14645 7.85355C6.95118 7.65829 6.95118 7.34171 7.14645 7.14645L8.79289 5.5L7.14645 3.85355C6.95118 3.65829 6.95118 3.34171 7.14645 3.14645Z" fill="white"/>
<path fill-rule="evenodd" clip-rule="evenodd" d="M3 5.5C3 5.22386 3.22386 5 3.5 5H9.5C9.77614 5 10 5.22386 10 5.5C10 5.77614 9.77614 6 9.5 6H3.5C3.22386 6 3 5.77614 3 5.5Z" fill="white"/>
</svg>
